<mxfile host="app.diagrams.net" agent="Mozilla/5.0 (Windows NT 10.0; Win64; x64) AppleWebKit/537.36 (KHTML, like Gecko) Chrome/130.0.0.0 Safari/537.36 Edg/130.0.0.0" version="24.8.0">
  <diagram name="第 1 页" id="jQkYalHnLEPqpQAmGWtq">
    <mxGraphModel dx="2109" dy="578" grid="1" gridSize="10" guides="1" tooltips="1" connect="1" arrows="1" fold="1" page="1" pageScale="1" pageWidth="827" pageHeight="1169" math="1" shadow="0">
      <root>
        <mxCell id="0" />
        <mxCell id="1" parent="0" />
        <mxCell id="pKho4q8jxOi1bs_3sZNi-17" value="" style="edgeStyle=orthogonalEdgeStyle;rounded=0;orthogonalLoop=1;jettySize=auto;html=1;" edge="1" parent="1" source="pKho4q8jxOi1bs_3sZNi-1">
          <mxGeometry relative="1" as="geometry">
            <mxPoint y="210" as="targetPoint" />
          </mxGeometry>
        </mxCell>
        <mxCell id="pKho4q8jxOi1bs_3sZNi-1" value="开始" style="rounded=0;whiteSpace=wrap;html=1;" vertex="1" parent="1">
          <mxGeometry x="-190" y="180" width="120" height="60" as="geometry" />
        </mxCell>
        <mxCell id="pKho4q8jxOi1bs_3sZNi-10" value="" style="edgeStyle=orthogonalEdgeStyle;rounded=0;orthogonalLoop=1;jettySize=auto;html=1;" edge="1" parent="1" source="pKho4q8jxOi1bs_3sZNi-2" target="pKho4q8jxOi1bs_3sZNi-6">
          <mxGeometry relative="1" as="geometry" />
        </mxCell>
        <mxCell id="pKho4q8jxOi1bs_3sZNi-2" value="产生随机数" style="rounded=0;whiteSpace=wrap;html=1;" vertex="1" parent="1">
          <mxGeometry x="190" y="180" width="120" height="60" as="geometry" />
        </mxCell>
        <mxCell id="pKho4q8jxOi1bs_3sZNi-11" value="" style="edgeStyle=orthogonalEdgeStyle;rounded=0;orthogonalLoop=1;jettySize=auto;html=1;" edge="1" parent="1" source="pKho4q8jxOi1bs_3sZNi-6" target="pKho4q8jxOi1bs_3sZNi-7">
          <mxGeometry relative="1" as="geometry" />
        </mxCell>
        <mxCell id="pKho4q8jxOi1bs_3sZNi-29" value="Y" style="edgeLabel;html=1;align=center;verticalAlign=middle;resizable=0;points=[];" vertex="1" connectable="0" parent="pKho4q8jxOi1bs_3sZNi-11">
          <mxGeometry x="-0.2067" y="-3" relative="1" as="geometry">
            <mxPoint as="offset" />
          </mxGeometry>
        </mxCell>
        <mxCell id="pKho4q8jxOi1bs_3sZNi-25" style="edgeStyle=orthogonalEdgeStyle;rounded=0;orthogonalLoop=1;jettySize=auto;html=1;entryX=0.5;entryY=0;entryDx=0;entryDy=0;" edge="1" parent="1" source="pKho4q8jxOi1bs_3sZNi-6" target="pKho4q8jxOi1bs_3sZNi-12">
          <mxGeometry relative="1" as="geometry">
            <mxPoint x="740" y="140" as="targetPoint" />
            <Array as="points">
              <mxPoint x="410" y="140" />
              <mxPoint x="760" y="140" />
            </Array>
          </mxGeometry>
        </mxCell>
        <mxCell id="pKho4q8jxOi1bs_3sZNi-31" value="N" style="edgeLabel;html=1;align=center;verticalAlign=middle;resizable=0;points=[];" vertex="1" connectable="0" parent="pKho4q8jxOi1bs_3sZNi-25">
          <mxGeometry x="-0.4486" y="-2" relative="1" as="geometry">
            <mxPoint as="offset" />
          </mxGeometry>
        </mxCell>
        <mxCell id="pKho4q8jxOi1bs_3sZNi-6" value="判断最大公因数是否为1" style="rhombus;whiteSpace=wrap;html=1;" vertex="1" parent="1">
          <mxGeometry x="370" y="170" width="80" height="80" as="geometry" />
        </mxCell>
        <mxCell id="pKho4q8jxOi1bs_3sZNi-13" value="" style="edgeStyle=orthogonalEdgeStyle;rounded=0;orthogonalLoop=1;jettySize=auto;html=1;" edge="1" parent="1" source="pKho4q8jxOi1bs_3sZNi-7" target="pKho4q8jxOi1bs_3sZNi-12">
          <mxGeometry relative="1" as="geometry" />
        </mxCell>
        <mxCell id="pKho4q8jxOi1bs_3sZNi-32" value="Y" style="edgeLabel;html=1;align=center;verticalAlign=middle;resizable=0;points=[];" vertex="1" connectable="0" parent="pKho4q8jxOi1bs_3sZNi-13">
          <mxGeometry x="-0.088" y="-3" relative="1" as="geometry">
            <mxPoint as="offset" />
          </mxGeometry>
        </mxCell>
        <mxCell id="pKho4q8jxOi1bs_3sZNi-34" style="edgeStyle=orthogonalEdgeStyle;rounded=0;orthogonalLoop=1;jettySize=auto;html=1;entryX=0.5;entryY=0;entryDx=0;entryDy=0;" edge="1" parent="1" source="pKho4q8jxOi1bs_3sZNi-7" target="pKho4q8jxOi1bs_3sZNi-18">
          <mxGeometry relative="1" as="geometry">
            <mxPoint x="30" y="120" as="targetPoint" />
            <Array as="points">
              <mxPoint x="580" y="130" />
              <mxPoint x="581" y="130" />
              <mxPoint x="581" y="120" />
              <mxPoint x="40" y="120" />
            </Array>
          </mxGeometry>
        </mxCell>
        <mxCell id="pKho4q8jxOi1bs_3sZNi-35" value="Y" style="edgeLabel;html=1;align=center;verticalAlign=middle;resizable=0;points=[];" vertex="1" connectable="0" parent="pKho4q8jxOi1bs_3sZNi-34">
          <mxGeometry x="-0.1055" y="-3" relative="1" as="geometry">
            <mxPoint as="offset" />
          </mxGeometry>
        </mxCell>
        <mxCell id="pKho4q8jxOi1bs_3sZNi-7" value="判断$$a^{m-1}$$是否为1" style="rhombus;whiteSpace=wrap;html=1;" vertex="1" parent="1">
          <mxGeometry x="510" y="150" width="140" height="120" as="geometry" />
        </mxCell>
        <mxCell id="pKho4q8jxOi1bs_3sZNi-12" value="结束" style="rounded=0;whiteSpace=wrap;html=1;" vertex="1" parent="1">
          <mxGeometry x="700" y="180" width="120" height="60" as="geometry" />
        </mxCell>
        <mxCell id="pKho4q8jxOi1bs_3sZNi-19" value="" style="edgeStyle=orthogonalEdgeStyle;rounded=0;orthogonalLoop=1;jettySize=auto;html=1;" edge="1" parent="1" source="pKho4q8jxOi1bs_3sZNi-18" target="pKho4q8jxOi1bs_3sZNi-2">
          <mxGeometry relative="1" as="geometry" />
        </mxCell>
        <mxCell id="pKho4q8jxOi1bs_3sZNi-20" value="k&amp;gt;0" style="edgeLabel;html=1;align=center;verticalAlign=middle;resizable=0;points=[];" vertex="1" connectable="0" parent="pKho4q8jxOi1bs_3sZNi-19">
          <mxGeometry x="-0.1309" y="-2" relative="1" as="geometry">
            <mxPoint as="offset" />
          </mxGeometry>
        </mxCell>
        <mxCell id="pKho4q8jxOi1bs_3sZNi-22" style="edgeStyle=orthogonalEdgeStyle;rounded=0;orthogonalLoop=1;jettySize=auto;html=1;entryX=0.585;entryY=1.05;entryDx=0;entryDy=0;entryPerimeter=0;" edge="1" parent="1" source="pKho4q8jxOi1bs_3sZNi-18" target="pKho4q8jxOi1bs_3sZNi-12">
          <mxGeometry relative="1" as="geometry">
            <mxPoint x="780" y="290" as="targetPoint" />
            <Array as="points">
              <mxPoint x="40" y="290" />
              <mxPoint x="770" y="290" />
            </Array>
          </mxGeometry>
        </mxCell>
        <mxCell id="pKho4q8jxOi1bs_3sZNi-24" value="k==0" style="edgeLabel;html=1;align=center;verticalAlign=middle;resizable=0;points=[];" vertex="1" connectable="0" parent="pKho4q8jxOi1bs_3sZNi-22">
          <mxGeometry x="-0.3372" y="-5" relative="1" as="geometry">
            <mxPoint as="offset" />
          </mxGeometry>
        </mxCell>
        <mxCell id="pKho4q8jxOi1bs_3sZNi-18" value="k减一" style="rhombus;whiteSpace=wrap;html=1;" vertex="1" parent="1">
          <mxGeometry y="170" width="80" height="80" as="geometry" />
        </mxCell>
      </root>
    </mxGraphModel>
  </diagram>
</mxfile>
